HIERARCHY
ROOT Hips
{
    OFFSET   0.000000   0.000000   0.000000
    CHANNELS 6 Xposition Yposition Zposition Zrotation Xrotation Yrotation
    JOINT Chest
    {
        OFFSET   0.000000   8.007230   0.000000
        CHANNELS 3 Zrotation Xrotation Yrotation
        JOINT Chest2
        {
            OFFSET   0.000000  22.077100   0.000000
            CHANNELS 3 Zrotation Xrotation Yrotation
            JOINT Neck
            {
                OFFSET   0.000000  23.254700   0.000000
                CHANNELS 3 Zrotation Xrotation Yrotation
                JOINT Head
                {
                    OFFSET   0.000010  14.370000   1.956610
                    CHANNELS 3 Zrotation Xrotation Yrotation
                    End Site
                    {
                        OFFSET   0.000000  19.566000   0.000000
                    }
                }
            }
            JOINT LeftCollar
            {
                OFFSET   3.911900  19.017000  -0.467063
                CHANNELS 3 Zrotation Xrotation Yrotation
                JOINT LeftShoulder
                {
                    OFFSET  10.383700   0.000000   0.000000
                    CHANNELS 3 Zrotation Xrotation Yrotation
                    JOINT LeftElbow
                    {
                        OFFSET  26.662100   0.001671   0.000522
                        CHANNELS 3 Zrotation Xrotation Yrotation
                        JOINT LeftWrist
                        {
                            OFFSET  28.869000   0.000037  -0.000114
                            CHANNELS 3 Zrotation Xrotation Yrotation
                            JOINT LeftFinger0
                            {
                                OFFSET   2.044650  -2.323450   3.252850
                                CHANNELS 3 Zrotation Xrotation Yrotation
                                JOINT LeftFinger01
                                {
                                    OFFSET   3.088140   0.000000   0.000000
                                    CHANNELS 3 Zrotation Xrotation Yrotation
                                    JOINT LeftFinger02
                                    {
                                        OFFSET   2.639460   0.000000   0.000000
                                        CHANNELS 3 Zrotation Xrotation Yrotation
                                        End Site
                                        {
                                            OFFSET   2.582190   0.000000   0.000000
                                        }
                                    }
                                }
                            }
                            JOINT LeftFinger1
                            {
                                OFFSET   8.364480   0.000000   3.252850
                                CHANNELS 3 Zrotation Xrotation Yrotation
                                JOINT LeftFinger11
                                {
                                    OFFSET   4.646930   0.000000   0.000000
                                    CHANNELS 3 Zrotation Xrotation Yrotation
                                    JOINT LeftFinger12
                                    {
                                        OFFSET   2.323470   0.000000   0.000000
                                        CHANNELS 3 Zrotation Xrotation Yrotation
                                        End Site
                                        {
                                            OFFSET   2.273050   0.000000   0.000000
                                        }
                                    }
                                }
                            }
                            JOINT LeftFinger2
                            {
                                OFFSET   8.364490   0.000016   1.078090
                                CHANNELS 3 Zrotation Xrotation Yrotation
                                JOINT LeftFinger21
                                {
                                    OFFSET   5.111620   0.000000   0.000000
                                    CHANNELS 3 Zrotation Xrotation Yrotation
                                    JOINT LeftFinger22
                                    {
                                        OFFSET   2.788150   0.000013   0.000000
                                        CHANNELS 3 Zrotation Xrotation Yrotation
                                        End Site
                                        {
                                            OFFSET   2.727660   0.000000   0.000000
                                        }
                                    }
                                }
                            }
                            JOINT LeftFinger3
                            {
                                OFFSET   7.899780   0.000016  -1.078090
                                CHANNELS 3 Zrotation Xrotation Yrotation
                                JOINT LeftFinger31
                                {
                                    OFFSET   4.646930   0.000000   0.000000
                                    CHANNELS 3 Zrotation Xrotation Yrotation
                                    JOINT LeftFinger32
                                    {
                                        OFFSET   2.323470   0.000000   0.000000
                                        CHANNELS 3 Zrotation Xrotation Yrotation
                                        End Site
                                        {
                                            OFFSET   2.273050   0.000000   0.000000
                                        }
                                    }
                                }
                            }
                            JOINT LeftFinger4
                            {
                                OFFSET   7.435080   0.000000  -3.252850
                                CHANNELS 3 Zrotation Xrotation Yrotation
                                JOINT LeftFinger41
                                {
                                    OFFSET   3.717550   0.000000   0.000000
                                    CHANNELS 3 Zrotation Xrotation Yrotation
                                    JOINT LeftFinger42
                                    {
                                        OFFSET   1.858760   0.000000   0.000000
                                        CHANNELS 3 Zrotation Xrotation Yrotation
                                        End Site
                                        {
                                            OFFSET   1.818440   0.000000   0.000000
                                        }
                                    }
                                }
                            }
                        }
                    }
                }
            }
            JOINT RightCollar
            {
                OFFSET  -3.911900  19.017000  -0.467064
                CHANNELS 3 Zrotation Xrotation Yrotation
                JOINT RightShoulder
                {
                    OFFSET -10.383700   0.000000   0.000000
                    CHANNELS 3 Zrotation Xrotation Yrotation
                    JOINT RightElbow
                    {
                        OFFSET -26.662100   0.001633   0.000260
                        CHANNELS 3 Zrotation Xrotation Yrotation
                        JOINT RightWrist
                        {
                            OFFSET -28.869000  -0.000045  -0.000080
                            CHANNELS 3 Zrotation Xrotation Yrotation
                            JOINT RightFinger0
                            {
                                OFFSET  -2.044660  -2.323490   3.252850
                                CHANNELS 3 Zrotation Xrotation Yrotation
                                JOINT RightFinger01
                                {
                                    OFFSET  -3.088140   0.000000   0.000000
                                    CHANNELS 3 Zrotation Xrotation Yrotation
                                    JOINT RightFinger02
                                    {
                                        OFFSET  -2.639450   0.000000   0.000000
                                        CHANNELS 3 Zrotation Xrotation Yrotation
                                        End Site
                                        {
                                            OFFSET  -2.582190   0.000000   0.000000
                                        }
                                    }
                                }
                            }
                            JOINT RightFinger1
                            {
                                OFFSET  -8.364480   0.000000   3.252850
                                CHANNELS 3 Zrotation Xrotation Yrotation
                                JOINT RightFinger11
                                {
                                    OFFSET  -4.646920   0.000000   0.000000
                                    CHANNELS 3 Zrotation Xrotation Yrotation
                                    JOINT RightFinger12
                                    {
                                        OFFSET  -2.323470   0.000000   0.000000
                                        CHANNELS 3 Zrotation Xrotation Yrotation
                                        End Site
                                        {
                                            OFFSET  -2.273050   0.000000   0.000000
                                        }
                                    }
                                }
                            }
                            JOINT RightFinger2
                            {
                                OFFSET  -8.364480   0.000000   1.078090
                                CHANNELS 3 Zrotation Xrotation Yrotation
                                JOINT RightFinger21
                                {
                                    OFFSET  -5.111610   0.000000   0.000000
                                    CHANNELS 3 Zrotation Xrotation Yrotation
                                    JOINT RightFinger22
                                    {
                                        OFFSET  -2.788160   0.000000   0.000000
                                        CHANNELS 3 Zrotation Xrotation Yrotation
                                        End Site
                                        {
                                            OFFSET  -2.727660   0.000000   0.000000
                                        }
                                    }
                                }
                            }
                            JOINT RightFinger3
                            {
                                OFFSET  -7.899780   0.000000  -1.078090
                                CHANNELS 3 Zrotation Xrotation Yrotation
                                JOINT RightFinger31
                                {
                                    OFFSET  -4.646930   0.000000   0.000000
                                    CHANNELS 3 Zrotation Xrotation Yrotation
                                    JOINT RightFinger32
                                    {
                                        OFFSET  -2.323470   0.000000   0.000000
                                        CHANNELS 3 Zrotation Xrotation Yrotation
                                        End Site
                                        {
                                            OFFSET  -2.273050   0.000000   0.000000
                                        }
                                    }
                                }
                            }
                            JOINT RightFinger4
                            {
                                OFFSET  -7.435090   0.000000  -3.252850
                                CHANNELS 3 Zrotation Xrotation Yrotation
                                JOINT RightFinger41
                                {
                                    OFFSET  -3.717550   0.000000   0.000000
                                    CHANNELS 3 Zrotation Xrotation Yrotation
                                    JOINT RightFinger42
                                    {
                                        OFFSET  -1.858760   0.000000   0.000000
                                        CHANNELS 3 Zrotation Xrotation Yrotation
                                        End Site
                                        {
                                            OFFSET  -1.818440   0.000000   0.000000
                                        }
                                    }
                                }
                            }
                        }
                    }
                }
            }
        }
    }
    JOINT LeftHip
    {
        OFFSET   9.782990   0.000000   0.000000
        CHANNELS 3 Zrotation Xrotation Yrotation
        JOINT LeftKnee
        {
            OFFSET  -0.000063 -41.789100   0.001657
            CHANNELS 3 Zrotation Xrotation Yrotation
            JOINT LeftAnkle
            {
                OFFSET   0.000078 -41.133200  -0.000113
                CHANNELS 3 Zrotation Xrotation Yrotation
                JOINT LeftToe
                {
                    OFFSET   0.000000  -6.358970  14.674500
                    CHANNELS 3 Zrotation Xrotation Yrotation
                    End Site
                    {
                        OFFSET   0.000000   0.000000   3.913200
                    }
                }
            }
        }
    }
    JOINT RightHip
    {
        OFFSET  -9.782990   0.000000   0.000000
        CHANNELS 3 Zrotation Xrotation Yrotation
        JOINT RightKnee
        {
            OFFSET   0.000053 -41.789200   0.000277
            CHANNELS 3 Zrotation Xrotation Yrotation
            JOINT RightAnkle
            {
                OFFSET   0.000030 -41.133200  -0.000150
                CHANNELS 3 Zrotation Xrotation Yrotation
                JOINT RightToe
                {
                    OFFSET   0.000000  -6.358960  14.674500
                    CHANNELS 3 Zrotation Xrotation Yrotation
                    End Site
                    {
                        OFFSET   0.000000   0.000000   3.913200
                    }
                }
            }
        }
    }
}
MOTION
Frames: 6
Frame Time:   0.016667
 -0.011488  89.600100  -1.959610  -3.320540  -7.350220  -1.800480   0.512157   5.260420   0.421930   0.991531  10.524300   0.801493   0.704538  -0.511426   0.002473   1.157660  -1.036580   2.517820  -4.278770  -2.432540   0.483072 -73.895600  16.582500  -2.291170  -2.351950  -5.514510 -14.440300  10.819900  -2.765410   2.067240  38.319800  25.073200 -55.519800 -27.179900   0.000000   0.000076  -8.589940  -0.004981  -0.004838 -21.143000   3.521060  -9.000620 -17.525600   0.001894  -0.008497 -12.265900  -0.006534  -0.007629 -27.000000   0.027666  -0.054264 -27.030400   0.002151  -0.007105 -18.002300   0.001268  -0.011590 -24.558400   0.025334  -0.055391 -24.571300   0.000000  -0.002539 -16.366100  -0.001795  -0.002741 -23.278900   0.024079  -0.055951 -34.918400   0.002416   0.000000 -23.255700   0.001296   0.001051  11.441500   0.231301   6.953250  68.412800   5.628460  -4.977820  -1.774140 -10.464200  13.619400 -15.869200  -8.863940   3.581970 -42.402400  29.869500  58.663500  24.109900  -0.003007   0.001436   7.054970  -0.002417   0.013662  32.069000   9.262850  14.408100  27.198300  -0.000191   0.002238  19.038800   0.003255   0.003500  33.541800   4.844680   7.265430  50.775200   0.001235   0.002418  33.816300   0.000741  -0.001581  28.717200   2.319710   4.225760  42.903100   0.000949   0.001514  28.566700   0.003607   0.001513  41.156000  -1.414220  -1.626710  61.763900   0.001234  -0.000599  41.134800   0.010832  -0.011832   2.949840   8.879300   3.416160   0.832290   0.040619   2.301870  -1.676650  -2.510410   1.364320   0.000000   0.000000  -0.000000   4.246730   6.568860   3.291080  -1.962930   4.564240  -7.947380   0.601874  -4.191790   0.380339  -0.000000   0.000000   0.000000
 -0.011474  89.600100  -1.959700  -3.318230  -7.354510  -1.782490   0.512254   5.266450   0.421873   0.991716  10.536400   0.801303   0.714009  -0.492967   0.002479   1.173210  -0.999252   2.509810  -4.277800  -2.432310   0.487694 -73.895200  16.592100  -2.291420  -2.362030  -5.529730 -14.440700  10.815000  -2.745330   2.061200  38.345900  25.116800 -55.549200 -27.165200   0.000000   0.000084  -8.582610  -0.004973  -0.004858 -21.142600   3.520960  -9.006660 -17.525600   0.001895  -0.008491 -12.266300  -0.006532  -0.007622 -26.999900   0.037451  -0.073481 -27.013700   0.002155  -0.007116 -17.991200   0.001273  -0.011603 -24.558300   0.034292  -0.075008 -24.567400   0.000029  -0.002542 -16.366100  -0.001798  -0.002762 -23.272800   0.032587  -0.075766 -34.909500   0.002423   0.000000 -23.249600   0.001289   0.001087  11.446600   0.231564   6.953250  68.414000   5.641350  -4.967410  -1.762920 -10.464100  13.613400 -15.869900  -8.852590   3.581710 -42.369400  29.845900  58.653100  24.135000  -0.003005   0.001410   7.067540  -0.002422   0.013650  32.062300   9.255830  14.401600  27.192300  -0.000195   0.002234  19.034600   0.003259   0.003489  33.535100   4.844640   7.265150  50.764900   0.001228   0.002404  33.809400   0.000733  -0.001572  28.718000   2.314600   4.216430  42.902500   0.000944   0.001505  28.568400   0.003591   0.001500  41.152900  -1.414150  -1.626690  61.759400   0.001225  -0.000597  41.131800   0.010844  -0.011834   2.949960   8.871930   3.416010   0.832457   0.060635   2.299610  -1.677070  -2.517950   1.351300   0.000000   0.000000   0.000000   4.246090   6.574000   3.291120  -1.962380   4.563970  -7.954290   0.601381  -4.191060   0.373652   0.000000   0.000000  -0.000000
 -0.011422  89.600100  -1.959840  -3.314580  -7.361860  -1.753350   0.512328   5.276620   0.421745   0.991809  10.556700   0.800987   0.729745  -0.462693   0.002489   1.199060  -0.937925   2.494390  -4.276050  -2.431990   0.495274 -73.894500  16.609200  -2.291820  -2.377590  -5.550770 -14.441200  10.809700  -2.717310   2.053140  38.371400  25.161300 -55.577200 -27.150500   0.000000   0.000112  -8.575270  -0.004959  -0.004892 -21.142200   3.520810  -9.012710 -17.525600   0.001895  -0.008473 -12.266600  -0.006523  -0.007604 -26.999900   0.051561  -0.101192 -26.997000   0.002168  -0.007145 -17.980000   0.001284  -0.011635 -24.558100   0.047210  -0.103294 -24.562200   0.000078  -0.002549 -16.366200  -0.001800  -0.002808 -23.263800   0.044856  -0.104341 -34.895800   0.002440   0.000000 -23.240600   0.001281   0.001124  11.456200   0.231826   6.953250  68.418100   5.661200  -4.953050  -1.745060 -10.464100  13.604900 -15.871200  -8.832560   3.581380 -42.313600  29.800900  58.646000  24.185800  -0.002995   0.001384   7.092930  -0.002433   0.013637  32.058700   9.243650  14.385200  27.186300  -0.000203   0.002217  19.030400   0.003270   0.003462  33.523600   4.844590   7.264870  50.747300   0.001209   0.002365  33.797700   0.000714  -0.001550  28.719800   2.302910   4.195090  42.902000   0.000926   0.001481  28.572700   0.003548   0.001466  41.149900  -1.414010  -1.626640  61.754900   0.001200  -0.000591  41.128800   0.010877  -0.011840   2.950080   8.864560   3.415860   0.832630   0.080651   2.294910  -1.678080  -2.525510   1.330180   0.000000   0.000000   0.000000   4.245250   6.582380   3.291190  -1.961540   4.563670  -7.964870   0.600468  -4.190340   0.361208  -0.000000   0.000000   0.000000
 -0.011319  89.600100  -1.959990  -3.313020  -7.368030  -1.731660   0.510958   5.284990   0.421519   0.988999  10.573400   0.800657   0.742248  -0.439746   0.002499   1.219610  -0.891111   2.477360  -4.274270  -2.431860   0.501467 -73.893200  16.624900  -2.292100  -2.388190  -5.557290 -14.435500  10.818000  -2.705620   2.051030  38.365700  25.161200 -55.567900 -27.161900   0.000000   0.000160  -8.580940  -0.004946  -0.004918 -21.135900   3.520690  -9.011140 -17.520500   0.001897  -0.008444 -12.263700  -0.006503  -0.007579 -27.000700   0.058686  -0.115184 -27.002300   0.002192  -0.007191 -17.980600   0.001298  -0.011685 -24.558400   0.054093  -0.117577 -24.560800   0.000121  -0.002561 -16.366300  -0.001767  -0.002871 -23.258700   0.051388  -0.118771 -34.885600   0.002468   0.000085 -23.235500   0.001300   0.001120  11.466400   0.231762   6.957400  68.426000   5.672190  -4.947660  -1.733200 -10.464000  13.602700 -15.869300  -8.816410   3.581260 -42.235300  29.746700  58.658600  24.253500  -0.002964   0.001395   7.126760  -0.002450   0.013637  32.079800   9.232110  14.356900  27.199300  -0.000209   0.002181  19.039500   0.003290   0.003425  33.514700   4.844580   7.266510  50.733800   0.001178   0.002304  33.788800   0.000686  -0.001518  28.722500   2.284850   4.162090  42.910500   0.000895   0.001445  28.579700   0.003483   0.001411  41.154200  -1.413810  -1.626570  61.761400   0.001162  -0.000582  41.133100   0.010931  -0.011851   2.951090   8.876180   3.416040   0.831313   0.060768   2.287410  -1.680250  -2.513220   1.314890   0.000000   0.000000  -0.000000   4.246470   6.588140   3.290860  -1.960870   4.566550  -7.972310   0.600735  -4.191920   0.347892   0.000000   0.000000   0.000000
 -0.011186  89.600000  -1.960090  -3.312380  -7.374700  -1.711330   0.508361   5.293630   0.421367   0.983762  10.590700   0.800477   0.754650  -0.416912   0.002510   1.239980  -0.844562   2.458620  -4.272410  -2.431820   0.506731 -73.890900  16.641700  -2.292330  -2.394240  -5.561450 -14.425600  10.831000  -2.701870   2.050430  38.355700  25.161400 -55.553700 -27.186200   0.000000   0.000232  -8.593100  -0.004930  -0.004950 -21.127300   3.520550  -9.009560 -17.513500   0.001898  -0.008404 -12.259400  -0.006478  -0.007546 -27.002300   0.062272  -0.122213 -27.009700   0.002223  -0.007250 -17.981900   0.001316  -0.011748 -24.560600   0.057017  -0.124749 -24.560600   0.000167  -0.002575 -16.366300  -0.001706  -0.002949 -23.256400   0.054160  -0.126021 -34.880100   0.002502   0.000228 -23.233200   0.001331   0.001115  11.476800   0.231320   6.963810  68.436000   5.684150  -4.946290  -1.721020 -10.464100  13.599200 -15.860700  -8.794550   3.581320 -42.161800  29.698200  58.690000  24.315100  -0.002925   0.001406   7.157580  -0.002475   0.013636  32.103700   9.221590  14.328700  27.217000  -0.000219   0.002136  19.051900   0.003316   0.003377  33.503600   4.844630   7.270430  50.717300   0.001139   0.002228  33.777800   0.000651  -0.001477  28.725100   2.267070   4.129600  42.923800   0.000856   0.001400  28.587300   0.003400   0.001341  41.162500  -1.413610  -1.626490  61.773700   0.001114  -0.000569  41.141300   0.010998  -0.011865   2.953550   8.892290   3.416270   0.829193   0.040885   2.282350  -1.684800  -2.500930   1.299470   0.000000   0.000000   0.000000   4.249730   6.594830   3.288370  -1.960470   4.571110  -7.976860   0.601587  -4.195620   0.334290  -0.000000   0.000000   0.000000
 -0.010993  89.600000  -1.960060  -3.311680  -7.382150  -1.692440   0.505444   5.302420   0.421561   0.977852  10.608300   0.800950   0.766983  -0.393423   0.002522   1.260210  -0.797117   2.440900  -4.270890  -2.433270   0.510125 -73.887600  16.660500  -2.291950  -2.396070  -5.571710 -14.414900  10.840000  -2.705720   2.050010  38.343500  25.167000 -55.536900 -27.223200   0.000000   0.000334  -8.611570  -0.004904  -0.005000 -21.124100   3.520340  -9.015650 -17.510800   0.001900  -0.008356 -12.257500  -0.006451  -0.007504 -27.003600   0.062803  -0.123254 -27.013100   0.002260  -0.007318 -17.983400   0.001337  -0.011822 -24.566500   0.056815  -0.125809 -24.565700   0.000223  -0.002591 -16.366300  -0.001644  -0.003041 -23.258400   0.053963  -0.127096 -34.881900   0.002542   0.000348 -23.235200   0.001352   0.001129  11.486200   0.224702   6.968670  68.445800   5.703090  -4.947410  -1.705110 -10.465800  13.589400 -15.844300  -8.761290   3.583820 -42.127500  29.666200  58.735000  24.336400  -0.002887   0.001390   7.168210  -0.002511   0.013628  32.111600   9.215350  14.312800  27.222400  -0.000237   0.002091  19.055700   0.003346   0.003316  33.487700   4.845370   7.275990  50.693900   0.001093   0.002141  33.762200   0.000614  -0.001427  28.726700   2.256670   4.110590  42.934400   0.000814   0.001345  28.594400   0.003305   0.001258  41.173900  -1.413460  -1.626410  61.790700   0.001060  -0.000553  41.152600   0.011075  -0.011880   2.957560   8.896770   3.416300   0.828022   0.047864   2.282450  -1.693080  -2.504100   1.282320   0.000000   0.000000   0.000000   4.255260   6.604090   3.281360  -1.960530   4.574760  -7.977410   0.601564  -4.201480   0.320554  -0.000000   0.000000   0.000000
